<svg width="17" height="16" viewBox="0 0 17 16" fill="none" xmlns="http://www.w3.org/2000/svg">
<g clip-path="url(#clip0_22_83)">
<path fill-rule="evenodd" clip-rule="evenodd" d="M9.136 3.5C9.136 3.36739 9.08332 3.24021 8.98955 3.14645C8.89579 3.05268 8.76861 3 8.636 3H2C1.60218 3 1.22064 3.15804 0.93934 3.43934C0.658035 3.72064 0.5 4.10218 0.5 4.5L0.5 14.5C0.5 14.8978 0.658035 15.2794 0.93934 15.5607C1.22064 15.842 1.60218 16 2 16H12C12.3978 16 12.7794 15.842 13.0607 15.5607C13.342 15.2794 13.5 14.8978 13.5 14.5V7.864C13.5 7.73139 13.4473 7.60421 13.3536 7.51045C13.2598 7.41668 13.1326 7.364 13 7.364C12.8674 7.364 12.7402 7.41668 12.6464 7.51045C12.5527 7.60421 12.5 7.73139 12.5 7.864V14.5C12.5 14.6326 12.4473 14.7598 12.3536 14.8536C12.2598 14.9473 12.1326 15 12 15H2C1.86739 15 1.74021 14.9473 1.64645 14.8536C1.55268 14.7598 1.5 14.6326 1.5 14.5V4.5C1.5 4.36739 1.55268 4.24021 1.64645 4.14645C1.74021 4.05268 1.86739 4 2 4H8.636C8.76861 4 8.89579 3.94732 8.98955 3.85355C9.08332 3.75979 9.136 3.63261 9.136 3.5Z" fill="#4DCC39"/>
<path fill-rule="evenodd" clip-rule="evenodd" d="M16.5 0.5C16.5 0.367392 16.4473 0.240215 16.3535 0.146447C16.2598 0.0526784 16.1326 0 16 0L11 0C10.8674 0 10.7402 0.0526784 10.6464 0.146447C10.5527 0.240215 10.5 0.367392 10.5 0.5C10.5 0.632608 10.5527 0.759785 10.6464 0.853553C10.7402 0.947322 10.8674 1 11 1H14.793L6.64599 9.146C6.5995 9.19249 6.56263 9.24768 6.53747 9.30842C6.51231 9.36916 6.49936 9.43426 6.49936 9.5C6.49936 9.56574 6.51231 9.63084 6.53747 9.69158C6.56263 9.75232 6.5995 9.80751 6.64599 9.854C6.69248 9.90049 6.74767 9.93736 6.80841 9.96252C6.86915 9.98768 6.93425 10.0006 6.99999 10.0006C7.06573 10.0006 7.13084 9.98768 7.19157 9.96252C7.25231 9.93736 7.3075 9.90049 7.35399 9.854L15.5 1.707V5.5C15.5 5.63261 15.5527 5.75979 15.6464 5.85355C15.7402 5.94732 15.8674 6 16 6C16.1326 6 16.2598 5.94732 16.3535 5.85355C16.4473 5.75979 16.5 5.63261 16.5 5.5V0.5Z" fill="#4DCC39"/>
</g>
<defs>
<clipPath id="clip0_22_83">
<rect width="16" height="16" fill="white" transform="translate(0.5)"/>
</clipPath>
</defs>
</svg>
