<svg width="51" height="50" viewBox="0 0 51 50" fill="none" xmlns="http://www.w3.org/2000/svg">
<path opacity="0.2" d="M49.75 31.0481C46.4109 44.4411 32.8453 52.5911 19.4508 49.252C6.06249 45.913 -2.0883 32.3473 1.25155 18.9552C4.58905 5.56062 18.1539 -2.59094 31.5445 0.748122C44.9383 4.08718 53.0883 17.6544 49.7492 31.0481H49.75Z" fill="#F7931A"/>
<path fill-rule="evenodd" clip-rule="evenodd" d="M33.0293 22.0956C33.3664 19.8389 31.6482 18.6258 29.2987 17.8165L30.0609 14.7595L28.1995 14.2958L27.4576 17.2722C26.9689 17.1503 26.4665 17.0353 25.9672 16.9213L26.7145 13.9253L24.8548 13.4615L24.0921 16.5175C23.6872 16.4252 23.2897 16.3341 22.9039 16.2382L22.906 16.2286L20.3398 15.5879L19.8448 17.5753C19.8448 17.5753 21.2254 17.8917 21.1963 17.9113C21.9499 18.0995 22.0867 18.5982 22.0633 18.9936L21.1952 22.4761C21.2472 22.4894 21.3145 22.5085 21.3887 22.5381L21.1926 22.4894L19.9752 27.3679C19.883 27.5969 19.6492 27.9403 19.1224 27.8099C19.141 27.837 17.7699 27.4723 17.7699 27.4723L16.8461 29.6029L19.2682 30.2065C19.5415 30.275 19.8115 30.3455 20.0786 30.4151L20.0789 30.4152C20.2519 30.4604 20.4236 30.5052 20.5942 30.5489L19.8241 33.6414L21.6828 34.1051L22.446 31.046C22.9532 31.1838 23.4461 31.311 23.9284 31.4308L23.1684 34.4756L25.0292 34.9393L25.7992 31.8532C28.9723 32.4537 31.3588 32.2115 32.3621 29.3421C33.1714 27.0314 32.3223 25.6985 30.6529 24.8287C31.8687 24.5473 32.7845 23.7476 33.0288 22.0956H33.0293ZM28.7772 28.0574C28.249 30.1783 24.9286 29.3007 23.4108 28.8996C23.2748 28.8637 23.1534 28.8316 23.0496 28.8058L24.0715 24.7095C24.1982 24.7411 24.3531 24.7759 24.5286 24.8153C26.0989 25.1676 29.3169 25.8898 28.7778 28.0574H28.7772ZM24.8442 22.9144C26.1107 23.2523 28.8714 23.9888 29.3523 22.0622C29.8439 20.0912 27.1595 19.4972 25.8484 19.207C25.701 19.1744 25.571 19.1456 25.4648 19.1192L24.5384 22.8344C24.6261 22.8562 24.7289 22.8837 24.8442 22.9144Z" fill="#F7931A"/>
</svg>
