<svg width="56" height="56" viewBox="0 0 56 56" fill="none" xmlns="http://www.w3.org/2000/svg">
<path opacity="0.2" d="M55.8481 28.0005C55.8481 43.3831 43.3783 55.8531 27.9959 55.8531C12.6134 55.8531 0.143463 43.3831 0.143463 28.0005C0.143463 12.6181 12.6134 0.148193 27.9959 0.148193C43.3782 0.148193 55.8481 12.6181 55.8481 28.0005Z" fill="#05C3ED"/>
<path d="M27.9069 15.0769L27.7348 15.6617V32.6292L27.9069 32.801L35.783 28.1454L27.9069 15.0769Z" fill="white"/>
<path d="M27.9069 15.0769L20.0308 28.1454L27.9069 32.801V24.5655V15.0769Z" fill="white"/>
<path d="M27.9069 35.3635L27.8099 35.4817V41.5259L27.9069 41.809L35.7878 30.7103L27.9069 35.3635Z" fill="white"/>
<path d="M27.9069 41.8091V35.3635L20.0308 30.7103L27.9069 41.8091Z" fill="white"/>
<path d="M27.9069 32.801L35.7829 28.1455L27.9069 24.5656V32.801Z" fill="white"/>
<path d="M20.0308 28.1454L27.9068 32.801V24.5655L20.0308 28.1454Z" fill="white"/>
</svg>
