<svg width="13" height="9" viewBox="0 0 13 9" fill="none" xmlns="http://www.w3.org/2000/svg">
<path fill-rule="evenodd" clip-rule="evenodd" d="M7.98903 0.5C7.98903 0.367392 8.04171 0.240215 8.13547 0.146447C8.22924 0.0526785 8.35642 0 8.48903 0H12.489C12.6216 0 12.7488 0.0526785 12.8426 0.146447C12.9363 0.240215 12.989 0.367392 12.989 0.5V4.5C12.989 4.63261 12.9363 4.75979 12.8426 4.85355C12.7488 4.94732 12.6216 5 12.489 5C12.3564 5 12.2292 4.94732 12.1355 4.85355C12.0417 4.75979 11.989 4.63261 11.989 4.5V1.9L8.37603 6.317C8.3318 6.37099 8.27676 6.41511 8.21445 6.44655C8.15213 6.47798 8.08393 6.49602 8.01423 6.4995C7.94452 6.50299 7.87486 6.49184 7.80973 6.46678C7.74459 6.44172 7.68542 6.4033 7.63603 6.354L5.04902 3.767L1.39303 8.794C1.31305 8.8957 1.19676 8.96243 1.06861 8.98019C0.940455 8.99794 0.810412 8.96533 0.705801 8.8892C0.601191 8.81307 0.530157 8.69936 0.507635 8.57195C0.485114 8.44455 0.512856 8.31338 0.585028 8.206L4.58503 2.706C4.62748 2.64751 4.68212 2.59893 4.74516 2.56359C4.8082 2.52825 4.87815 2.50699 4.9502 2.50129C5.02224 2.49559 5.09467 2.50557 5.16249 2.53055C5.23031 2.55554 5.2919 2.59492 5.34303 2.646L7.95203 5.256L11.434 1H8.48903C8.35642 1 8.22924 0.947321 8.13547 0.853553C8.04171 0.759785 7.98903 0.632608 7.98903 0.5Z" fill="#4DCC39"/>
</svg>
