<svg width="56" height="56" viewBox="0 0 56 56" fill="none" xmlns="http://www.w3.org/2000/svg">
<path opacity="0.2" d="M55.8481 28.0005C55.8481 43.3831 43.3783 55.8531 27.9959 55.8531C12.6134 55.8531 0.143463 43.3831 0.143463 28.0005C0.143463 12.6181 12.6134 0.148193 27.9959 0.148193C43.3782 0.148193 55.8481 12.6181 55.8481 28.0005Z" fill="#00A478"/>
<path d="M25.1398 27.5129V22.6402H18.531V18.3691H36.9986V22.7004H30.3898V27.5129H25.1398Z" fill="white"/>
<path fill-rule="evenodd" clip-rule="evenodd" d="M15.6898 28.0543C15.6898 26.43 21.0016 25.1066 27.6104 25.1066C34.2192 25.1066 39.531 26.43 39.531 28.0543C39.531 29.6785 34.2192 31.0019 27.6104 31.0019C21.0016 31.0019 15.6898 29.6785 15.6898 28.0543ZM38.5428 28.0543C38.1104 27.4527 34.5281 25.5878 27.6104 25.5878C20.6928 25.5878 17.1104 27.3925 16.6781 28.0543C17.1104 28.6558 20.6928 29.5582 27.6104 29.5582C34.5898 29.5582 38.1104 28.6558 38.5428 28.0543Z" fill="white"/>
<path d="M30.3898 29.0168V25.648C29.5251 25.5879 28.5986 25.5277 27.6722 25.5277C26.8075 25.5277 26.0045 25.5277 25.2016 25.5879V28.9566C25.9428 28.9566 26.8075 29.0168 27.6722 29.0168C28.5986 29.0769 29.5251 29.0769 30.3898 29.0168Z" fill="white"/>
<path d="M27.6104 31.0019C26.7457 31.0019 25.9428 31.0019 25.1398 30.9418V39.9051H30.3281V30.8816C29.4633 30.9418 28.5369 31.0019 27.6104 31.0019Z" fill="white"/>
</svg>
